<?xml version="1.0" standalone="no"?><!DOCTYPE svg PUBLIC "-//W3C//DTD SVG 1.1//EN" "http://www.w3.org/Graphics/SVG/1.1/DTD/svg11.dtd"><svg t="1576465120782" class="icon" viewBox="0 0 1024 1024" version="1.1" xmlns="http://www.w3.org/2000/svg" p-id="5432" xmlns:xlink="http://www.w3.org/1999/xlink" width="200" height="200"><defs><style type="text/css"></style></defs><path d="M226.304 774.656c-16.966656 0-30.72-13.753344-30.72-30.72 0-16.966656 13.753344-30.72 30.72-30.72h573.44c16.966656 0 30.72 13.753344 30.72 30.72 0 16.966656-13.753344 30.72-30.72 30.72H226.304z m81.92 132.096c-16.966656 0-30.72-13.753344-30.72-30.72 0-16.966656 13.753344-30.72 30.72-30.72h409.6c16.966656 0 30.72 13.753344 30.72 30.72 0 16.966656-13.753344 30.72-30.72 30.72H308.224z m-55.428096-333.212672h494.691328c74.103808 0 134.176768-60.07296 134.176768-134.176768 0-74.104832-60.07296-134.177792-134.176768-134.177792-3.79904 0-7.574528 0.157696-11.322368 0.468992-13.942784 1.16224-26.909696-7.2448-31.5392-20.448256C674.434048 199.10656 592.882688 140.288 500.141056 140.288c-109.555712 0-201.521152 81.794048-214.948864 189.519872-1.936384 15.53408-15.244288 27.128832-30.898176 26.917888-0.498688-0.007168-0.9984-0.01024-1.498112-0.01024-59.874304 0-108.411904 48.5376-108.411904 108.41088 0 59.875328 48.5376 108.412928 108.411904 108.412928zM943.104 439.36256c0 108.036096-87.580672 195.616768-195.616768 195.616768H252.79488C158.989312 634.979328 82.944 558.934016 82.944 465.127424c0-85.574656 63.2832-156.367872 145.604608-168.134656C256.12288 171.266048 368.175104 78.848 500.14208 78.848c111.332352 0 210.091008 66.030592 254.121984 165.01248C859.1616 247.431168 943.104 333.5936 943.104 439.36256z" fill="#F5A623" p-id="5433"></path></svg>